<?xml version="1.0" encoding="utf-8"?>
<!-- Generator: Adobe Illustrator 27.5.0, SVG Export Plug-In . SVG Version: 6.00 Build 0)  -->
<svg version="1.1" xmlns="http://www.w3.org/2000/svg" xmlns:xlink="http://www.w3.org/1999/xlink" x="0px" y="0px"
	 viewBox="0 0 500 500" style="enable-background:new 0 0 500 500;" xml:space="preserve">
<g id="BACKGROUND">
	<rect id="XMLID_1863_" style="fill:#FBF4F5;" width="500" height="500"/>
</g>
<g id="OBJECTS">
	<g>
		<g>
			<text transform="matrix(1 0 0 1 141.6969 129.6946)" style="font-family:'Quicksand-Bold'; font-size:19.0565px;">EVENTS ANNOUNCEMENT</text>
			<g>
				<g>
					<path style="fill:#C5DBFD;" d="M413.081,308.004H110.848V91.107h302.233V308.004z M112.353,306.499h299.222V92.613H112.353
						V306.499z"/>
				</g>
				<polygon style="fill:#D1CFDB;" points="135.308,142.007 129.979,149.008 129.979,277.347 205.447,277.347 210.841,270.235 
					135.308,270.235 				"/>
				<polygon style="fill:#D1CFDB;" points="225.225,142.007 219.896,149.008 219.896,277.347 295.364,277.347 300.757,270.235 
					225.225,270.235 				"/>
				<polygon style="fill:#D1CFDB;" points="315.142,142.007 309.813,149.008 309.813,277.347 385.28,277.347 390.674,270.235 
					315.142,270.235 				"/>
				<g>
					<g>
						<path style="fill:#C5DBFD;" d="M211.593,270.988h-77.038V141.254h77.038V270.988z M136.06,269.482h74.028V142.759H136.06
							V269.482z"/>
					</g>
					<g>
						<path style="fill:#C5DBFD;" d="M301.511,270.988h-77.038V141.254h77.038V270.988z M225.978,269.482h74.028V142.759h-74.028
							V269.482z"/>
					</g>
					<g>
						<path style="fill:#C5DBFD;" d="M391.427,270.988h-77.037V141.254h77.037V270.988z M315.895,269.482h74.027V142.759h-74.027
							V269.482z"/>
					</g>
				</g>
				<g>
					<polygon style="fill:#C5DBFD;" points="391.943,407.874 131.986,407.874 131.986,308.037 133.491,308.037 133.491,406.368 
						390.438,406.368 390.438,307.324 391.943,307.324 					"/>
				</g>
				<g>
					<rect x="140.647" y="390.673" style="fill:#D1CFDB;" width="218.701" height="1.505"/>
				</g>
				<g>
					<rect x="145.142" y="165.481" style="fill:#D1CFDB;" width="59.271" height="1.505"/>
				</g>
				
					<line style="fill:none;stroke:#FFFFFF;stroke-width:0.75;stroke-miterlimit:10;" x1="323.272" y1="157.411" x2="382.544" y2="157.411"/>
				<g>
					<rect x="145.142" y="171.488" style="fill:#D1CFDB;" width="25.269" height="1.505"/>
				</g>
				<g>
					<rect x="344.055" y="169.821" style="fill:#D1CFDB;" width="25.269" height="1.505"/>
				</g>
				<g>
					<rect x="329.35" y="252.719" style="fill:#D1CFDB;" width="25.269" height="1.505"/>
				</g>
				<g>
					<rect x="329.35" y="238.76" style="fill:#D1CFDB;" width="25.269" height="1.505"/>
				</g>
				<g>
					<rect x="250.358" y="227.238" style="fill:#D1CFDB;" width="25.267" height="1.505"/>
				</g>
				<g>
					<rect x="235.993" y="237.273" style="fill:#D1CFDB;" width="53.995" height="1.505"/>
				</g>
				<g>
					<rect x="235.993" y="249.271" style="fill:#D1CFDB;" width="53.995" height="1.505"/>
				</g>
				<g>
					<rect x="235.993" y="261.269" style="fill:#D1CFDB;" width="53.995" height="1.505"/>
				</g>
				
					<line style="fill:none;stroke:#FFFFFF;stroke-width:0.75;stroke-miterlimit:10;" x1="145.142" y1="184.115" x2="170.41" y2="184.115"/>
				<g>
					<rect x="330.024" y="182.919" style="fill:#D1CFDB;" width="53.329" height="1.206"/>
				</g>
				<g>
					<rect x="330.024" y="260.845" style="fill:#D1CFDB;" width="53.329" height="1.206"/>
				</g>
				<g>
					<rect x="143.501" y="145.95" style="fill:#D1CFDB;" width="59.836" height="13.141"/>
					
						<text transform="matrix(1 0 0 1 144.4645 155.5696)" style="fill:#FFFFFF; font-family:'Quicksand-Bold'; font-size:9.2067px;">CANCELLED </text>
				</g>
				<g>
					<rect x="233.073" y="145.95" style="fill:#D1CFDB;" width="59.836" height="13.141"/>
					
						<text transform="matrix(1 0 0 1 234.0368 155.5696)" style="fill:#FFFFFF; font-family:'Quicksand-Bold'; font-size:9.2067px;">CANCELLED </text>
				</g>
				<g>
					<rect x="325.346" y="145.95" style="fill:#D1CFDB;" width="59.836" height="13.141"/>
					
						<text transform="matrix(1 0 0 1 326.3092 155.5696)" style="fill:#FFFFFF; font-family:'Quicksand-Bold'; font-size:9.2067px;">CANCELLED </text>
				</g>
				<path style="fill:#E1ECFD;" d="M93.299,170.106c-2.02,0.972-4.125,1.871-6.356,2.089c-2.231,0.218-4.635-0.333-6.218-1.921
					c-1.513-1.517-2.081-3.757-2.121-5.899c-0.126-6.627,4.124-12.553,8.934-17.113c4.646-4.404,9.999-8.062,15.79-10.792
					c3.883-1.83,8.072-2.821,12.31-3.5c8.409-1.347,12.596,5.564,6.414,12.993c-5.183,6.229-10.487,12.419-17.048,17.167
					C101.319,165.796,97.397,168.134,93.299,170.106z"/>
				<path style="fill:#E1ECFD;" d="M212.262,100.862c-2.037,0.936-4.157,1.797-6.392,1.976c-2.235,0.179-4.628-0.415-6.183-2.031
					c-1.486-1.543-2.014-3.793-2.017-5.935c-0.009-6.628,4.345-12.478,9.235-16.952c4.724-4.322,10.139-7.884,15.978-10.511
					c3.915-1.761,8.12-2.678,12.37-3.282c8.431-1.198,12.495,5.785,6.183,13.104c-5.292,6.136-10.705,12.232-17.348,16.863
					C220.357,96.695,216.394,98.963,212.262,100.862z"/>
				<circle style="fill:#E1ECFD;" cx="92.091" cy="110.853" r="10.766"/>
				<circle style="fill:#E1ECFD;" cx="431.053" cy="161.892" r="10.765"/>
				
					<ellipse transform="matrix(0.7071 -0.7071 0.7071 0.7071 33.4241 266.047)" style="fill:#E1ECFD;" cx="337.859" cy="92.677" rx="7.411" ry="7.411"/>
				<path style="fill:#E1ECFD;" d="M194.771,80.961c0,2.973-2.41,5.383-5.383,5.383c-2.973,0-5.383-2.41-5.383-5.383
					s2.41-5.383,5.383-5.383C192.361,75.578,194.771,77.988,194.771,80.961z"/>
				<path style="fill:#E1ECFD;" d="M343.242,344.153c0,2.973-2.41,5.383-5.383,5.383s-5.383-2.41-5.383-5.383
					s2.41-5.383,5.383-5.383S343.242,341.18,343.242,344.153z"/>
				<path style="fill:#C5DBFD;" d="M329.581,43.803c-2.69-2.83-6.851-3.89-10.745-3.603c-3.894,0.287-7.595,1.763-11.152,3.372
					c-7.216,3.262-14.141,7.169-20.665,11.657c-11.619,7.992-21.989,17.839-30.391,29.175c-1.131,1.526-3.886,4.865-6.17,8.272
					h54.65c4.089-2.761,7.995-5.791,11.656-9.098c8.564-7.738,16.208-17.877,16.265-29.419
					C333.047,50.43,332.151,46.507,329.581,43.803z"/>
				<path style="fill:#E1ECFD;" d="M273.757,71.799c0,2.973-2.41,5.383-5.383,5.383c-2.973,0-5.383-2.41-5.383-5.383
					c0-2.973,2.41-5.383,5.383-5.383C271.347,66.416,273.757,68.826,273.757,71.799z"/>
				<g>
					<path style="fill:#C5DBFD;" d="M253.814,306.524c-4.267,2.416-8.245,5.341-11.804,8.715c-4.811,4.56-9.06,10.486-8.934,17.113
						c0.041,2.142,0.609,4.382,2.121,5.899c1.583,1.588,3.987,2.139,6.218,1.921c2.232-0.218,4.336-1.116,6.356-2.089
						c4.098-1.972,8.02-4.31,11.704-6.976c6.561-4.748,11.865-10.938,17.048-17.167c2.213-2.659,3.078-5.244,2.916-7.416H253.814z"
						/>
					<path style="fill:#E1ECFD;" d="M297.7,306.524c-1.102,0.922-2.188,1.863-3.248,2.832c-7.929,7.255-14.988,16.739-14.974,27.486
						c0.005,3.473,0.861,7.121,3.27,9.623c2.521,2.619,6.402,3.582,10.026,3.292c3.624-0.29,7.061-1.686,10.364-3.204
						c6.7-3.079,13.125-6.757,19.174-10.973c10.772-7.508,19.548-17.392,28.129-27.341c0.495-0.574,0.918-1.146,1.335-1.716H297.7z"
						/>
				</g>
				<circle style="fill:#FBF4F5;" cx="284.841" cy="66.93" r="6.541"/>
			</g>
			<g>
				<g>
					<ellipse style="fill:#E1ECFD;" cx="96.07" cy="449.214" rx="45.626" ry="9.442"/>
					<ellipse style="fill:#E1ECFD;" cx="181.925" cy="450.403" rx="45.626" ry="9.442"/>
					<ellipse style="fill:#E1ECFD;" cx="396.75" cy="448.328" rx="53.193" ry="9.442"/>
				</g>
				<g>
					<g>
						<g>
							<path style="fill:#422E2D;" d="M434.444,434.934c0,0-10.485,8.915-14.154,9.546c-0.639,0.11-1.186,0.742-1.238,1.544
								c-0.052,0.796,0.304,1.696,1.936,2.113c2.396,0.612,13.054-0.386,18.551-0.96c1.897-0.198,3.344-1.756,3.404-3.662
								c0.033-1.043,0.071-2.244,0.112-3.469c0.057-1.689-0.524-3.902-0.524-3.902L434.444,434.934z"/>
						</g>
						<g>
							<path style="fill:#422E2D;" d="M370.393,439.438c0,0-11.242,7.941-14.952,8.24c-0.646,0.052-1.248,0.633-1.372,1.427
								c-0.123,0.788,0.151,1.716,1.739,2.278c2.331,0.824,13.036,0.784,18.563,0.705c1.907-0.027,3.488-1.449,3.718-3.342
								c0.126-1.035,0.272-2.228,0.422-3.445c0.208-1.677-0.173-3.934-0.173-3.934L370.393,439.438z"/>
						</g>
						<path style="fill:#6F1B73;" d="M442.919,387.456l-10.917-112.78c-14.439-2.759-33.156,23.708-33.156,23.708l16.925,91.675
							L442.919,387.456z"/>
						<path style="fill:#422E2D;" d="M407.411,344.175l6.764-24.51l-3.353,25.259c-0.029,0.219-0.026,0.44,0.009,0.658l3.204,36.123
							L407.411,344.175z"/>
						<path style="fill:#6F1B73;" d="M431.185,286.329c-0.401-0.37-3.358-14.141-3.881-14.186l-43.868-3.757
							c-0.539-0.046-1.019,0.367-1.096,0.95c-0.976,7.347-6.879,52.394-9.347,85.71c-0.848,11.451-2.051,24.25-3.264,36.372h25.182
							c-0.256,0.852,16.73-58.783,19.62-82.67C416.168,295.217,435.662,290.457,431.185,286.329z"/>
						<path style="fill:#F0C6B2;" d="M394.145,393.955c-0.004,0.012-0.007,0.024-0.011,0.036
							C394.138,393.979,394.141,393.967,394.145,393.955z"/>
						<path style="fill:#C9C6D3;" d="M372.939,391.417l-2.546,48.021l7.946,1.928c0,0,13.475-33.658,16.571-49.949H372.939z"/>
						<polygon style="fill:#F0C6B2;" points="418.032,390.058 434.444,434.934 442.53,436.143 441.731,387.456 						"/>
						<path style="fill:#F0C6B2;" d="M383.157,428.806c4.191-11.273,9.877-27.516,11.753-37.389h-21.971l-1.982,37.389
							C373.627,428.804,379.339,428.804,383.157,428.806z"/>
						<polygon style="fill:#C9C6D3;" points="434.444,434.934 442.53,436.143 442.329,423.869 430.601,424.427 						"/>
						<g>
							<g>
								<path style="fill:#F0C6B2;" d="M403.568,208.797c-0.202-3.034,0.468-19.051,0.468-19.051s3.337,1.065,5.47,2.658
									c0.019-0.488,0.134-1.13,0.411-1.994c0,0,0.675-1.691,1.436-1.451c0.761,0.24,1.608,1.435,0.275,3.026l-0.761,1.79l0,0
									c0.152,0.238,0.264,0.482,0.325,0.731c0,0-0.662,12.186,0.032,13.318L403.568,208.797z"/>
							</g>
							<g>
								<path style="fill:#DCAC9B;" d="M403.568,205.052c0.007-1.288,0.03-1.707,0.072-3.437c0.072-0.083,0,0,0,0
									s3.641-0.643,5.277-4.212C408.917,197.403,407.682,205.136,403.568,205.052z"/>
							</g>
							<g>
								<path style="fill:#F0C6B2;" d="M402.589,187.986c0,0,0.018,3.19-0.598,4.234c-0.616,1.044-1.783,7.15-0.878,8.573
									c0.463,0.728,4.07,1.405,6.596-0.722c2.526-2.127,3.12-7.392,3.12-7.392S412.077,187.151,402.589,187.986z"/>
							</g>
						</g>
						<path style="fill:#C9C6D3;" d="M421.357,208.797c0,0,24.553-1.187,31.544,27.876c4.295,17.853-18.738,33.561-18.738,33.561
							l1.287-10.537c0,0,8.098-8.306,3.541-20.69c-0.926-2.518-7.169-4.014-7.169-4.014L421.357,208.797z"/>
						<path style="fill:#C9C6D3;" d="M415.61,207.746c-1.81-0.436-16.017-0.481-21.321,3.258
							c-1.898,1.338-1.266,19.025-4.841,23.674s-7.108,25.584-9.351,40.566c-0.604,4.031,34.045,9.68,53.185,2.221
							C433.281,277.465,445.325,214.896,415.61,207.746z"/>
						<path style="fill:#C9C6D3;" d="M394.289,211.004c0,0-20.179,17.274-21.91,17.485c-5.747,0.701-10.55-9.084-12.789-14.62
							c-1.019-2.518-2.61-4.745-4.669-6.516l0,0l-2.137,4.53c0,0,5.452,33.192,14.974,33.752
							c11.629,0.684,22.001-7.664,22.001-7.664S401.787,211.559,394.289,211.004z"/>
						<path style="fill:#422E2D;" d="M407.109,192.491c0.368,0.363,1.809,1.05,0.288,3.966c-6.065,11.629,0.588,26.859,7.507,28.546
							c8.438,2.057,20.791-6.722,12.324-17.458c-12.882-16.333-8.963-27.107-18.31-27.075c-3.362,0.012-7.831,0.716-6.82,6.765
							c0.577,3.454,1.863,0.227,2.56,5.045C405.008,194.701,405.831,191.23,407.109,192.491z"/>
						<g>
							<path style="fill:#F0C6B2;" d="M352.8,212.214c0,0-10.789-3.872-10.813-4.229c-0.146-2.199,7.499,0.092,8.47-0.035
								c0.971-0.128,0.005-1.321,0.081-2.24c0.076-0.919,2.899,0.24,4.382,1.644C356.364,208.72,352.8,212.214,352.8,212.214z"/>
						</g>
					</g>
					<g>
						<g>
							<g>
								<path style="fill:#D17975;" d="M199.933,203.977c0.202-3.034-0.468-19.051-0.468-19.051s-3.337,1.065-5.47,2.658
									c-0.019-0.488-0.134-1.13-0.411-1.994c0,0-0.675-1.691-1.436-1.451c-0.761,0.24-1.608,1.435-0.275,3.026l0.761,1.79l0,0
									c-0.152,0.238-0.264,0.482-0.325,0.731c0,0,0.662,12.186-0.032,13.318L199.933,203.977z"/>
							</g>
							<g>
								<path style="fill:#A8615E;" d="M199.933,200.231c-0.006-1.288-0.03-1.707-0.072-3.436c-0.072-0.083,0,0,0,0
									s-3.641-0.643-5.277-4.212C194.584,192.583,195.819,200.316,199.933,200.231z"/>
							</g>
							<g>
								<path style="fill:#D17975;" d="M200.913,183.165c0,0-0.018,3.19,0.598,4.234c0.616,1.044,1.783,7.15,0.879,8.573
									c-0.463,0.728-4.07,1.405-6.596-0.722c-2.526-2.127-3.12-7.392-3.12-7.392S191.424,182.331,200.913,183.165z"/>
							</g>
						</g>
						<g>
							<g>
								<g>
									<path style="fill:#D17975;" d="M265.185,180.423c0,0,3.069-7.596,5.432-6.435c2.363,1.161,5.289,2.543,4.585,4.523
										c-0.704,1.98-5.668,5.042-5.668,5.042S265.823,182.239,265.185,180.423z"/>
								</g>
							</g>
						</g>
						<path style="fill:#5987FF;" d="M171.206,264.222c-4.557,2.408-17.86,79.029-20.315,91.084s-15.85,80.368-15.85,80.368
							l18.083,1.34c0,0,20.315-59.16,25.004-68.536c4.688-9.376,28.388-79.313,26.026-95.245
							C204.153,273.233,183.038,257.971,171.206,264.222z"/>
						<path style="fill:#5987FF;" d="M184.006,268.985l15.443,168.364h19.234l5.618-172.918
							C224.301,264.431,185.966,255.957,184.006,268.985z"/>
						<g>
							<path style="fill:#FFB117;" d="M174.574,230.885c2.786,0.623,6.809-3.298,7.612-6.037c0.973-3.318,6.763-22.655,0.153-22.081
								c-13.927,1.21-25.027-8.986-25.027-8.986l30.054-8.122l-0.615-5.023c0,0-29.236-7.527-47.658,4.806
								c-2.717,1.819-3.688,5.358-2.344,8.339C140.967,203.141,149.67,225.315,174.574,230.885z"/>
						</g>
						<path style="fill:#FFB117;" d="M191.659,201.57c0,0-9.724,0.525-14.377,2.749c-4.215,2.016-5.768,8.737-6.688,12.265
							c-1.95,7.476-2.703,36.596-2.886,45.261c-0.031,1.442,0.432,5.058,1.651,5.827c14.647,9.238,61.022,11.334,55.898-7.454
							c-1.264-4.633-2.212-32.801-2.608-38.743c-0.052-0.773-0.263-1.504-0.633-2.185
							C219.397,214.476,214.812,200.356,191.659,201.57z"/>
						<g>
							<path style="fill:#422E2D;" d="M151.125,436.866c0,0,9.248,8.52,13.004,9.165c0.654,0.112,1.21,0.747,1.258,1.549
								c0.047,0.796-0.325,1.695-2,2.106c-2.467,0.605-13.439-0.441-19.055-1.035c-1.913-0.202-3.369-1.781-3.416-3.704
								c-0.025-1.035-0.056-2.224-0.088-3.436c-0.046-1.69-0.002-5.407-0.002-5.407L151.125,436.866z"/>
						</g>
						<g>
							<path style="fill:#422E2D;" d="M211.949,437.349c0,0,10.776,8.562,14.463,9.07c0.642,0.089,1.21,0.702,1.289,1.502
								c0.078,0.794-0.248,1.705-1.865,2.176c-2.374,0.691-13.06,0.047-18.573-0.344c-1.902-0.135-3.401-1.644-3.524-3.547
								c-0.067-1.041-0.146-2.24-0.227-3.463c-0.113-1.686-0.016-5.395-0.016-5.395H211.949z"/>
						</g>
						<path style="fill:#422E2D;" d="M203.089,179.957c0,0,1.136,4.744-1.455,5.934c-2.591,1.19-5.298-1.103-6.062,3.168
							c-0.137,0.767-0.431,2.718-0.395,3.523c0.011,0.257-2.171,2.779-2.171,2.779c-1.12,0.403-5.181-1.316-3.991-11.246
							c0.399-3.331,4.131-4.018,4.621-4.158c0.49-0.14,4.621-0.07,8.402-2.241C203.156,177.076,203.089,179.957,203.089,179.957z"/>
						<path style="fill:#FFB117;" d="M203.337,202.462c0,0,25.945,3.05,36.868,0.426c10.923-2.625,24.927-22.417,24.927-22.417
							l5.602,2.609c0,0-9.687,25.082-21.146,34.828c-12.183,10.363-28.325,12.477-28.325,12.477L203.337,202.462z"/>
						<g>
							<path style="fill:#D17975;" d="M186.082,180.705c0,0,10.966-3.338,11.198-3.066c1.43,1.676-6.07,4.405-6.773,5.087
								c-0.703,0.682,0.785,1.062,1.273,1.845c0.488,0.783-2.469,1.539-4.497,1.298
								C185.309,185.635,186.082,180.705,186.082,180.705z"/>
						</g>
						<path style="fill:#D49313;" d="M241.184,223.597l-19.739,3.921l-3.085,0.613l6.593,30.485
							c-0.79-5.342-1.436-19.075-1.875-28.545C226.369,229.428,233.694,227.662,241.184,223.597z"/>
						<path style="fill:#D49313;" d="M148.278,214.2c4.922,6.142,11.662,11.885,21.04,15.157v-3.443
							C159.262,225.085,149.094,215.022,148.278,214.2z"/>
						<polygon style="fill:#3A58A6;" points="187.449,306.524 190.081,335.217 185.204,349.866 187.642,332.833 						"/>
					</g>
					<g>
						<g>
							<path style="fill:#422E2D;" d="M65.929,435.268c0,0,10.485,8.915,14.154,9.546c0.639,0.11,1.186,0.742,1.238,1.544
								c0.052,0.796-0.304,1.696-1.936,2.113c-2.396,0.612-13.054-0.386-18.551-0.96c-1.897-0.198-3.344-1.756-3.404-3.662
								c-0.033-1.043-0.071-2.244-0.112-3.469c-0.057-1.689,0.524-3.902,0.524-3.902L65.929,435.268z"/>
						</g>
						<g>
							<path style="fill:#422E2D;" d="M125.109,439.771c0,0,11.242,7.941,14.952,8.24c0.646,0.052,1.248,0.633,1.372,1.427
								c0.123,0.788-0.151,1.717-1.739,2.278c-2.331,0.824-13.036,0.784-18.563,0.705c-1.907-0.027-3.488-1.449-3.718-3.342
								c-0.126-1.035-0.065-9.307-0.065-9.307H125.109z"/>
						</g>
						<path style="fill:#FFB117;" d="M68.37,275.01L55.093,436.477l14.227-1.209l32.207-136.55
							C101.526,298.718,82.809,272.251,68.37,275.01z"/>
						<path style="fill:#422E2D;" d="M92.962,344.509l-5.666-26.217l2.255,26.967c0.029,0.219,0.026,0.44-0.009,0.658l-8.449,39.433
							L92.962,344.509z"/>
						<path style="fill:#F0C6B2;" d="M106.227,394.289c0.004,0.012,0.007,0.024,0.011,0.036
							C106.235,394.313,106.231,394.301,106.227,394.289z"/>
						<path style="fill:#FFB117;" d="M129.326,427.45c-0.787-22.135-1.267-62.906-1.946-72.071
							c-2.468-33.315-8.371-78.363-9.347-85.71c-0.077-0.583-0.557-0.996-1.096-0.95l-43.867,3.757
							c-0.524,0.045-3.481,13.816-3.881,14.186c-4.477,4.128,15.017,8.888,16.654,22.418
							c2.891,23.887,27.369,130.691,27.369,130.691h16.769L129.326,427.45z"/>
						<g>
							<g>
								<path style="fill:#F0C6B2;" d="M95.43,210.531c0.202-3.034-0.468-19.051-0.468-19.051s-3.337,1.065-5.47,2.658
									c-0.019-0.488-0.134-1.13-0.411-1.994c0,0-0.675-1.691-1.436-1.451c-0.761,0.24-1.608,1.435-0.275,3.026l0.761,1.79l0,0
									c-0.152,0.238-0.264,0.482-0.325,0.731c0,0,0.662,12.186-0.032,13.318L95.43,210.531z"/>
							</g>
							<g>
								<path style="fill:#DCAC9B;" d="M95.43,206.786c-0.007-1.288-0.03-1.707-0.072-3.437c-0.072-0.083,0,0,0,0
									s-3.641-0.643-5.277-4.212C90.08,199.137,91.316,206.871,95.43,206.786z"/>
							</g>
							<g>
								<path style="fill:#F0C6B2;" d="M96.409,189.72c0,0-0.018,3.19,0.598,4.234c0.616,1.044,1.783,7.15,0.879,8.573
									c-0.463,0.728-4.07,1.405-6.596-0.722c-2.526-2.127-3.12-7.392-3.12-7.392S86.92,188.885,96.409,189.72z"/>
							</g>
						</g>
						<path style="fill:#6F1B73;" d="M79.015,209.131c0,0-25.819,5.88-31.343,32.309c-6.722,32.164,19.348,47.516,19.348,47.516
							l1.045-10.795c0,0-11.852-19.57-7.295-31.954c0.926-2.517,9.533-6.383,9.533-6.383L79.015,209.131z"/>
						<path style="fill:#6F1B73;" d="M79.015,209.131c1.779-0.548,21.764-1.532,27.068,2.207c1.898,1.338,4.457,18.338,8.033,22.987
							c3.576,4.649,3.916,26.271,6.16,41.253c0.604,4.031-34.045,9.68-53.185,2.221C67.092,277.799,58.222,215.534,79.015,209.131z"
							/>
						<path style="fill:#6F1B73;" d="M96.805,209.131c0,0,23.996,1.356,34.46,24.681c14.249,31.763-10.98,54.63-10.98,54.63
							l-1.188-10.762c0,0,7.745-22.887,1.188-33.019c-2.036-3.145-12.488-4.84-12.488-4.84L96.805,209.131z"/>
						<path style="fill:#422E2D;" d="M101.33,191.708c-0.337,0.717-0.879,1.389-1.631,1.636c-0.204,0.067-0.424,0.104-0.602,0.225
							c-0.191,0.131-0.307,0.342-0.433,0.536c-0.774,1.192-2.195,1.934-3.616,1.887c-0.436-0.014-0.911-0.088-1.276,0.151
							c-0.181,0.118-0.311,0.301-0.413,0.492c-0.844,1.582,0.043,3.562-0.371,5.306c-0.438,1.848-2.258,3.061-4.088,3.569
							c-1.918,0.533-4.287,0.348-5.471-1.253c-0.355-0.481-0.587-1.068-1.051-1.444c-0.398-0.322-0.914-0.447-1.392-0.632
							c-1.681-0.649-2.997-2.173-3.393-3.931c-0.34-1.508-0.036-3.074,0.083-4.616c0.147-1.912,0.007-3.85,0.336-5.739
							c0.33-1.889,1.236-3.808,2.912-4.74c0.562-0.312,1.195-0.506,1.696-0.91c1.131-0.911,1.27-2.596,2.168-3.737
							c0.743-0.945,1.957-1.429,3.156-1.52c1.198-0.091,2.395,0.169,3.555,0.485c2.223,0.605,4.458,1.46,6.115,3.062
							c1.639,1.584,1.763,3.595,2.894,5.359C101.653,187.681,102.299,189.647,101.33,191.708z"/>
					</g>
				</g>
			</g>
		</g>
	</g>
</g>
</svg>
